<svg xmlns="http://www.w3.org/2000/svg" fill="none" viewBox="6.75 7 22.5 22.5">
<path d="M29.25 17.9124C29.25 24.1828 24.3374 28.8248 18 28.8248C16.8619 28.8248 15.7698 28.6747 14.7433 28.3926C14.5438 28.3374 14.3318 28.3531 14.1426 28.4363L11.9095 29.4221C11.3255 29.6802 10.6662 29.2647 10.6466 28.6264L10.5853 26.625C10.5776 26.3786 10.4667 26.1478 10.2829 25.9839C8.09387 24.0262 6.75 21.1924 6.75 17.9124C6.75 11.6423 11.6626 7 18 7C24.3374 7 29.25 11.6423 29.25 17.9124Z" fill="#0866FF"/>
<path d="M21.0547 21.0537L24.9715 15.0004C25.3653 14.392 24.6359 13.6838 24.0394 14.0953L19.9506 16.9155C19.8128 17.0107 19.6312 17.0133 19.4908 16.9223L15.8619 14.5745C15.5547 14.3758 15.1446 14.4636 14.946 14.7708L11.0289 20.8244C10.635 21.4328 11.3645 22.141 11.961 21.7295L16.0506 18.909C16.1884 18.8138 16.37 18.8112 16.5107 18.9022L20.139 21.2501C20.4462 21.4487 20.8563 21.3609 21.0549 21.0537H21.0547Z" fill="white"/>
</svg>